<?xml version="1.0" encoding="UTF-8"?>
<svg xmlns="http://www.w3.org/2000/svg" xmlns:xlink="http://www.w3.org/1999/xlink"
	width="158.98068pt" height="142.66371pt" viewBox="-72 -72 158.98068 142.66371">
	<g transform="translate(-72.07000732421874,70.19371032714842) scale(1,-1)">
		<g>
			<g stroke="rgb(0.0%,0.0%,0.0%)">
				<g fill="rgb(0.0%,0.0%,0.0%)">
					<g stroke-width="0.4pt">
						<g>
							<g>
								<g stroke="rgb(0.0%,0.0%,0.0%)">
									<g fill="rgb(0.0%,0.0%,0.0%)">
										<g stroke-width="0.8pt">
											<path d=" M  28.45274 28.45274 L  56.90549 56.90549  "
												style="fill:none"></path>
											<g>
												<g>
													<g
														transform="matrix(1.0,0.0,0.0,1.0,46.41208,32.11282)">
														<g stroke="rgb(0.0%,0.0%,0.0%)">
															<g fill="rgb(0.0%,0.0%,0.0%)">
																<g stroke="none"
																	transform="scale(-1,1) translate(-72.07000732421874,70.19371032714842) scale(-1,-1)">
																	<text
																		alignment-baseline="baseline"
																		y="70.19371032714842"
																		x="-72.07000732421874"
																		style="font-family: cmr10; font-size: 10;">
																		A</text>
																</g>
															</g>
														</g>
													</g>
												</g>
											</g>
										</g>
									</g>
								</g>
							</g>
							<g>
								<g stroke="rgb(0.0%,0.0%,0.0%)">
									<g fill="rgb(0.0%,0.0%,0.0%)">
										<g stroke-width="0.8pt">
											<path d=" M  85.35823 85.35823 L  113.81097 113.81097  "
												style="fill:none"></path>
											<g>
												<g>
													<g
														transform="matrix(1.0,0.0,0.0,1.0,88.76828,103.31757)">
														<g stroke="rgb(0.0%,0.0%,0.0%)">
															<g fill="rgb(0.0%,0.0%,0.0%)">
																<g stroke="none"
																	transform="scale(-1,1) translate(-72.07000732421874,70.19371032714842) scale(-1,-1)">
																	<text
																		alignment-baseline="baseline"
																		y="70.19371032714842"
																		x="-72.07000732421874"
																		style="font-family: cmr10; font-size: 10;">
																		B</text>
																</g>
															</g>
														</g>
													</g>
												</g>
											</g>
										</g>
									</g>
								</g>
							</g>
							<g>
								<g stroke="rgb(50.0%,50.0%,50.0%)">
									<g fill="rgb(50.0%,50.0%,50.0%)">
										<g stroke-width="0.4pt">
											<path d=" M  0.0 0.0 L  142.26372 142.26372  "
												style="fill:none"></path>
											<g>
												<g stroke="rgb(50.0%,50.0%,50.0%)">
													<g fill="rgb(50.0%,50.0%,50.0%)">
														<g>
															<g stroke="rgb(50.0%,50.0%,50.0%)">
																<g fill="rgb(50.0%,50.0%,50.0%)">
																</g>
															</g>
														</g>
														<g>
															<g
																transform="matrix(1.0,0.0,0.0,1.0,148.64214,129.05199)">
																<g stroke="rgb(50.0%,50.0%,50.0%)">
																	<g fill="rgb(50.0%,50.0%,50.0%)">
																		<g stroke="none"
																			transform="scale(-1,1) translate(-72.07000732421874,70.19371032714842) scale(-1,-1)">
																			<text
																				alignment-baseline="baseline"
																				y="70.19371032714842"
																				x="-72.07000732421874"
																				style="font-family: cmr10; font-size: 10;">
																				E</text>
																		</g>
																	</g>
																</g>
															</g>
														</g>
													</g>
												</g>
											</g>
										</g>
									</g>
								</g>
							</g>
							<g>
								<g stroke="rgb(0.0%,0.0%,0.0%)">
									<g fill="rgb(0.0%,0.0%,0.0%)">
										<path
											d=" M  28.45274 28.45274 M  30.45274 28.45274 C  30.45274 29.55733 29.55733 30.45274 28.45274 30.45274 C  27.34816 30.45274 26.45274 29.55733 26.45274 28.45274 C  26.45274 27.34816 27.34816 26.45274 28.45274 26.45274 C  29.55733 26.45274 30.45274 27.34816 30.45274 28.45274 Z M  28.45274 28.45274  "></path>
									</g>
								</g>
							</g>
							<g>
								<g stroke="rgb(0.0%,0.0%,0.0%)">
									<g fill="rgb(0.0%,0.0%,0.0%)">
										<path
											d=" M  56.90549 56.90549 M  58.90549 56.90549 C  58.90549 58.01007 58.01007 58.90549 56.90549 58.90549 C  55.8009 58.90549 54.90549 58.01007 54.90549 56.90549 C  54.90549 55.8009 55.8009 54.90549 56.90549 54.90549 C  58.01007 54.90549 58.90549 55.8009 58.90549 56.90549 Z M  56.90549 56.90549  "></path>
									</g>
								</g>
							</g>
							<g>
								<g stroke="rgb(0.0%,0.0%,0.0%)">
									<g fill="rgb(0.0%,0.0%,0.0%)">
										<path
											d=" M  85.35823 85.35823 M  87.35823 85.35823 C  87.35823 86.46281 86.46281 87.35823 85.35823 87.35823 C  84.25365 87.35823 83.35823 86.46281 83.35823 85.35823 C  83.35823 84.25365 84.25365 83.35823 85.35823 83.35823 C  86.46281 83.35823 87.35823 84.25365 87.35823 85.35823 Z M  85.35823 85.35823  "></path>
									</g>
								</g>
							</g>
							<g>
								<g stroke="rgb(0.0%,0.0%,0.0%)">
									<g fill="rgb(0.0%,0.0%,0.0%)">
										<path
											d=" M  113.81097 113.81097 M  115.81097 113.81097 C  115.81097 114.91556 114.91556 115.81097 113.81097 115.81097 C  112.70639 115.81097 111.81097 114.91556 111.81097 113.81097 C  111.81097 112.70639 112.70639 111.81097 113.81097 111.81097 C  114.91556 111.81097 115.81097 112.70639 115.81097 113.81097 Z M  113.81097 113.81097  "></path>
									</g>
								</g>
							</g>
						</g>
					</g>
				</g>
			</g>
		</g>
	</g>
</svg>