<?xml version="1.0" encoding="UTF-8"?>
<svg xmlns="http://www.w3.org/2000/svg" xmlns:xlink="http://www.w3.org/1999/xlink"
	width="92.5301pt" height="142.6637pt" viewBox="-72 -72 91.5301 142.6637"
	style="overflow: visible; position: absolute;">
	<g transform="translate(-72.07000732421874,55.96733093261717) scale(1,-1)">
		<g>
			<g stroke="rgb(0.0%,0.0%,0.0%)">
				<g fill="rgb(0.0%,0.0%,0.0%)">
					<g stroke-width="0.4pt">
						<g>
							<g>
								<g fill="rgb(89.99939%,89.99939%,100.0%)">
									<g stroke="rgb(0.0%,0.0%,100.0%)">
										<path
											d=" M  0.0 0.0 L  28.45274 0.0 L  56.90549 28.45274 L  56.90549 85.35823 L  28.45274 113.81097 L  0.0 56.90549 Z  "></path>
									</g>
								</g>
							</g>
							<g>
								<g stroke="rgb(0.0%,0.0%,0.0%)">
									<g fill="rgb(0.0%,0.0%,0.0%)">
										<path
											d=" M  85.35823 85.35823 M  86.85823 85.35823 C  86.85823 86.18666 86.18666 86.85823 85.35823 86.85823 C  84.5298 86.85823 83.85823 86.18666 83.85823 85.35823 C  83.85823 84.5298 84.5298 83.85823 85.35823 83.85823 C  86.18666 83.85823 86.85823 84.5298 86.85823 85.35823 Z M  85.35823 85.35823  "></path>
										<g>
											<g>
												<g
													transform="matrix(1.0,0.0,0.0,1.0,82.71933,71.82925)">
													<g stroke="rgb(0.0%,0.0%,0.0%)">
														<g fill="rgb(0.0%,0.0%,0.0%)">
															<g stroke="none"
																transform="scale(-1,1) translate(-72.07000732421874,55.96733093261717) scale(-1,-1)">
																<text alignment-baseline="baseline"
																	y="55.96733093261717"
																	x="-72.07000732421874"
																	style="font-family: cmr10; font-size: 10;">
																	x</text>
															</g>
														</g>
													</g>
												</g>
											</g>
										</g>
									</g>
								</g>
							</g>
							<g>
								<g stroke="rgb(0.0%,0.0%,0.0%)">
									<g fill="rgb(0.0%,0.0%,0.0%)">
										<path
											d=" M  28.45274 56.90549 M  29.95274 56.90549 C  29.95274 57.73392 29.28117 58.40549 28.45274 58.40549 C  27.62431 58.40549 26.95274 57.73392 26.95274 56.90549 C  26.95274 56.07706 27.62431 55.40549 28.45274 55.40549 C  29.28117 55.40549 29.95274 56.07706 29.95274 56.90549 Z M  28.45274 56.90549  "></path>
										<g>
											<g>
												<g
													transform="matrix(1.0,0.0,0.0,1.0,25.81384,43.37651)">
													<g stroke="rgb(0.0%,0.0%,0.0%)">
														<g fill="rgb(0.0%,0.0%,0.0%)">
															<g stroke="none"
																transform="scale(-1,1) translate(-72.07000732421874,55.96733093261717) scale(-1,-1)">
																<text alignment-baseline="baseline"
																	y="55.96733093261717"
																	x="-72.07000732421874"
																	style="font-family: cmr10; font-size: 10;">
																	y</text>
															</g>
														</g>
													</g>
												</g>
											</g>
										</g>
									</g>
								</g>
							</g>
							<g>
								<g stroke="rgb(0.0%,0.0%,0.0%)">
									<g fill="rgb(0.0%,0.0%,0.0%)">
										<g stroke-dasharray="0.8pt,2.0pt" stroke-dashoffset="0.0pt">
											<g stroke-width="0.8pt">
												<path
													d=" M  28.45274 56.90549 L  85.35823 85.35823  "
													style="fill:none"></path>
											</g>
										</g>
									</g>
								</g>
							</g>
							<g>
								<g stroke="rgb(0.0%,0.0%,0.0%)">
									<g fill="rgb(0.0%,0.0%,0.0%)">
										<g stroke-width="0.8pt">
											<g stroke-opacity="0">
												<g fill-opacity="0">
													<path
														d=" M  28.45274 56.90549 L  56.90549 71.13185  "
														style="fill:none"></path>
												</g>
											</g>
										</g>
									</g>
								</g>
							</g>
							<g>
								<g stroke="rgb(0.0%,0.0%,0.0%)">
									<g fill="rgb(0.0%,0.0%,0.0%)">
										<g stroke-opacity="0">
											<g fill-opacity="0">
												<path
													d=" M  56.90549 71.13185 M  58.40549 71.13185 C  58.40549 71.96028 57.73392 72.63185 56.90549 72.63185 C  56.07706 72.63185 55.40549 71.96028 55.40549 71.13185 C  55.40549 70.30342 56.07706 69.63185 56.90549 69.63185 C  57.73392 69.63185 58.40549 70.30342 58.40549 71.13185 Z M  56.90549 71.13185  "></path>
												<g>
													<g>
														<g
															transform="matrix(1.0,0.0,0.0,1.0,61.86118,61.87062)">
															<g stroke="rgb(0.0%,0.0%,0.0%)">
																<g fill="rgb(0.0%,0.0%,0.0%)">
																	<g stroke="none"
																		transform="scale(-1,1) translate(-72.07000732421874,55.96733093261717) scale(-1,-1)">
																		<text
																			alignment-baseline="baseline"
																			y="55.96733093261717"
																			x="-72.07000732421874"
																			style="font-family: cmr10; font-size: 10;">
																			z</text>
																	</g>
																</g>
															</g>
														</g>
													</g>
												</g>
											</g>
										</g>
									</g>
								</g>
							</g>
							<g>
								<g stroke="rgb(50.0%,50.0%,50.0%)">
									<g fill="rgb(50.0%,50.0%,50.0%)">
										<g stroke-opacity="0">
											<g fill-opacity="0">
												<path
													d=" M  56.90549 -14.22636 L  56.90549 128.03734  "
													style="fill:none"></path>
											</g>
										</g>
									</g>
								</g>
							</g>
						</g>
					</g>
				</g>
			</g>
		</g>
	</g>
</svg>